<mxfile host="app.diagrams.net" modified="2024-03-13T21:13:08.047Z" agent="Mozilla/5.0 (Windows NT 10.0; Win64; x64) AppleWebKit/537.36 (KHTML, like Gecko) Chrome/122.0.0.0 Safari/537.36" etag="38cGWPlhQ0li-opi1Bry" version="24.0.6" type="device">
  <diagram name="Страница — 1" id="rINjy8bYUCgvM6_go1eW">
    <mxGraphModel dx="1160" dy="1849" grid="1" gridSize="10" guides="1" tooltips="1" connect="1" arrows="1" fold="1" page="1" pageScale="1" pageWidth="827" pageHeight="1169" math="0" shadow="0">
      <root>
        <mxCell id="1" parent="0" />
        <mxCell id="br4_NB9lEpFLnCuc-L6s-48" style="edgeStyle=orthogonalEdgeStyle;rounded=0;orthogonalLoop=1;jettySize=auto;html=1;exitX=0.5;exitY=0;exitDx=0;exitDy=0;entryX=0.5;entryY=0;entryDx=0;entryDy=0;" edge="1" parent="1" source="br4_NB9lEpFLnCuc-L6s-1" target="br4_NB9lEpFLnCuc-L6s-8">
          <mxGeometry relative="1" as="geometry" />
        </mxCell>
        <mxCell id="br4_NB9lEpFLnCuc-L6s-1" value="Книги" style="swimlane;fontStyle=0;childLayout=stackLayout;horizontal=1;startSize=30;horizontalStack=0;resizeParent=1;resizeParentMax=0;resizeLast=0;collapsible=1;marginBottom=0;whiteSpace=wrap;html=1;" vertex="1" parent="1">
          <mxGeometry x="20" y="100" width="140" height="210" as="geometry" />
        </mxCell>
        <mxCell id="br4_NB9lEpFLnCuc-L6s-2" value="&amp;nbsp; &amp;nbsp;- ID" style="text;strokeColor=none;fillColor=none;align=left;verticalAlign=middle;spacingLeft=4;spacingRight=4;overflow=hidden;points=[[0,0.5],[1,0.5]];portConstraint=eastwest;rotatable=0;whiteSpace=wrap;html=1;" vertex="1" parent="br4_NB9lEpFLnCuc-L6s-1">
          <mxGeometry y="30" width="140" height="30" as="geometry" />
        </mxCell>
        <mxCell id="br4_NB9lEpFLnCuc-L6s-3" value="&amp;nbsp;- Название" style="text;strokeColor=none;fillColor=none;align=left;verticalAlign=middle;spacingLeft=4;spacingRight=4;overflow=hidden;points=[[0,0.5],[1,0.5]];portConstraint=eastwest;rotatable=0;whiteSpace=wrap;html=1;" vertex="1" parent="br4_NB9lEpFLnCuc-L6s-1">
          <mxGeometry y="60" width="140" height="30" as="geometry" />
        </mxCell>
        <mxCell id="br4_NB9lEpFLnCuc-L6s-4" value="&amp;nbsp; &amp;nbsp;- Автор" style="text;strokeColor=none;fillColor=none;align=left;verticalAlign=middle;spacingLeft=4;spacingRight=4;overflow=hidden;points=[[0,0.5],[1,0.5]];portConstraint=eastwest;rotatable=0;whiteSpace=wrap;html=1;" vertex="1" parent="br4_NB9lEpFLnCuc-L6s-1">
          <mxGeometry y="90" width="140" height="30" as="geometry" />
        </mxCell>
        <mxCell id="br4_NB9lEpFLnCuc-L6s-5" value="&amp;nbsp; - Год издания" style="text;strokeColor=none;fillColor=none;align=left;verticalAlign=middle;spacingLeft=4;spacingRight=4;overflow=hidden;points=[[0,0.5],[1,0.5]];portConstraint=eastwest;rotatable=0;whiteSpace=wrap;html=1;" vertex="1" parent="br4_NB9lEpFLnCuc-L6s-1">
          <mxGeometry y="120" width="140" height="30" as="geometry" />
        </mxCell>
        <mxCell id="br4_NB9lEpFLnCuc-L6s-6" value="&amp;nbsp; &amp;nbsp;- Жанр" style="text;strokeColor=none;fillColor=none;align=left;verticalAlign=middle;spacingLeft=4;spacingRight=4;overflow=hidden;points=[[0,0.5],[1,0.5]];portConstraint=eastwest;rotatable=0;whiteSpace=wrap;html=1;" vertex="1" parent="br4_NB9lEpFLnCuc-L6s-1">
          <mxGeometry y="150" width="140" height="30" as="geometry" />
        </mxCell>
        <mxCell id="br4_NB9lEpFLnCuc-L6s-7" value="&amp;nbsp; &amp;nbsp;- Издательство" style="text;strokeColor=none;fillColor=none;align=left;verticalAlign=middle;spacingLeft=4;spacingRight=4;overflow=hidden;points=[[0,0.5],[1,0.5]];portConstraint=eastwest;rotatable=0;whiteSpace=wrap;html=1;" vertex="1" parent="br4_NB9lEpFLnCuc-L6s-1">
          <mxGeometry y="180" width="140" height="30" as="geometry" />
        </mxCell>
        <mxCell id="br4_NB9lEpFLnCuc-L6s-8" value="Авторы" style="swimlane;fontStyle=0;childLayout=stackLayout;horizontal=1;startSize=30;horizontalStack=0;resizeParent=1;resizeParentMax=0;resizeLast=0;collapsible=1;marginBottom=0;whiteSpace=wrap;html=1;" vertex="1" parent="1">
          <mxGeometry x="400" y="-20" width="140" height="180" as="geometry" />
        </mxCell>
        <mxCell id="br4_NB9lEpFLnCuc-L6s-9" value="&amp;nbsp; &amp;nbsp;- ID" style="text;strokeColor=none;fillColor=none;align=left;verticalAlign=middle;spacingLeft=4;spacingRight=4;overflow=hidden;points=[[0,0.5],[1,0.5]];portConstraint=eastwest;rotatable=0;whiteSpace=wrap;html=1;" vertex="1" parent="br4_NB9lEpFLnCuc-L6s-8">
          <mxGeometry y="30" width="140" height="30" as="geometry" />
        </mxCell>
        <mxCell id="br4_NB9lEpFLnCuc-L6s-10" value="&lt;div style=&quot;text-align: center;&quot;&gt;&lt;span style=&quot;background-color: initial; text-wrap: nowrap;&quot;&gt;&amp;nbsp; &amp;nbsp;- Имя&lt;/span&gt;&lt;/div&gt;" style="text;strokeColor=none;fillColor=none;align=left;verticalAlign=middle;spacingLeft=4;spacingRight=4;overflow=hidden;points=[[0,0.5],[1,0.5]];portConstraint=eastwest;rotatable=0;whiteSpace=wrap;html=1;" vertex="1" parent="br4_NB9lEpFLnCuc-L6s-8">
          <mxGeometry y="60" width="140" height="30" as="geometry" />
        </mxCell>
        <mxCell id="br4_NB9lEpFLnCuc-L6s-11" value="&amp;nbsp; &amp;nbsp;- Фамилия" style="text;strokeColor=none;fillColor=none;align=left;verticalAlign=middle;spacingLeft=4;spacingRight=4;overflow=hidden;points=[[0,0.5],[1,0.5]];portConstraint=eastwest;rotatable=0;whiteSpace=wrap;html=1;" vertex="1" parent="br4_NB9lEpFLnCuc-L6s-8">
          <mxGeometry y="90" width="140" height="30" as="geometry" />
        </mxCell>
        <mxCell id="br4_NB9lEpFLnCuc-L6s-13" value="&amp;nbsp; - Дата рождения" style="text;strokeColor=none;fillColor=none;align=left;verticalAlign=middle;spacingLeft=4;spacingRight=4;overflow=hidden;points=[[0,0.5],[1,0.5]];portConstraint=eastwest;rotatable=0;whiteSpace=wrap;html=1;" vertex="1" parent="br4_NB9lEpFLnCuc-L6s-8">
          <mxGeometry y="120" width="140" height="30" as="geometry" />
        </mxCell>
        <mxCell id="br4_NB9lEpFLnCuc-L6s-14" value="&amp;nbsp; &amp;nbsp;- Страна" style="text;strokeColor=none;fillColor=none;align=left;verticalAlign=middle;spacingLeft=4;spacingRight=4;overflow=hidden;points=[[0,0.5],[1,0.5]];portConstraint=eastwest;rotatable=0;whiteSpace=wrap;html=1;" vertex="1" parent="br4_NB9lEpFLnCuc-L6s-8">
          <mxGeometry y="150" width="140" height="30" as="geometry" />
        </mxCell>
        <mxCell id="br4_NB9lEpFLnCuc-L6s-15" value="Жанры" style="swimlane;fontStyle=0;childLayout=stackLayout;horizontal=1;startSize=30;horizontalStack=0;resizeParent=1;resizeParentMax=0;resizeLast=0;collapsible=1;marginBottom=0;whiteSpace=wrap;html=1;" vertex="1" parent="1">
          <mxGeometry x="560" y="240" width="140" height="90" as="geometry" />
        </mxCell>
        <mxCell id="br4_NB9lEpFLnCuc-L6s-16" value="&amp;nbsp; &amp;nbsp;- ID" style="text;strokeColor=none;fillColor=none;align=left;verticalAlign=middle;spacingLeft=4;spacingRight=4;overflow=hidden;points=[[0,0.5],[1,0.5]];portConstraint=eastwest;rotatable=0;whiteSpace=wrap;html=1;" vertex="1" parent="br4_NB9lEpFLnCuc-L6s-15">
          <mxGeometry y="30" width="140" height="30" as="geometry" />
        </mxCell>
        <mxCell id="br4_NB9lEpFLnCuc-L6s-17" value="&amp;nbsp; &amp;nbsp;- Название" style="text;strokeColor=none;fillColor=none;align=left;verticalAlign=middle;spacingLeft=4;spacingRight=4;overflow=hidden;points=[[0,0.5],[1,0.5]];portConstraint=eastwest;rotatable=0;whiteSpace=wrap;html=1;" vertex="1" parent="br4_NB9lEpFLnCuc-L6s-15">
          <mxGeometry y="60" width="140" height="30" as="geometry" />
        </mxCell>
        <mxCell id="br4_NB9lEpFLnCuc-L6s-19" value="Издательства" style="swimlane;fontStyle=0;childLayout=stackLayout;horizontal=1;startSize=30;horizontalStack=0;resizeParent=1;resizeParentMax=0;resizeLast=0;collapsible=1;marginBottom=0;whiteSpace=wrap;html=1;" vertex="1" parent="1">
          <mxGeometry x="344" y="320" width="140" height="150" as="geometry" />
        </mxCell>
        <mxCell id="br4_NB9lEpFLnCuc-L6s-20" value="&amp;nbsp; &amp;nbsp;- ID" style="text;strokeColor=none;fillColor=none;align=left;verticalAlign=middle;spacingLeft=4;spacingRight=4;overflow=hidden;points=[[0,0.5],[1,0.5]];portConstraint=eastwest;rotatable=0;whiteSpace=wrap;html=1;" vertex="1" parent="br4_NB9lEpFLnCuc-L6s-19">
          <mxGeometry y="30" width="140" height="30" as="geometry" />
        </mxCell>
        <mxCell id="br4_NB9lEpFLnCuc-L6s-21" value="&amp;nbsp; &amp;nbsp;- Название" style="text;strokeColor=none;fillColor=none;align=left;verticalAlign=middle;spacingLeft=4;spacingRight=4;overflow=hidden;points=[[0,0.5],[1,0.5]];portConstraint=eastwest;rotatable=0;whiteSpace=wrap;html=1;" vertex="1" parent="br4_NB9lEpFLnCuc-L6s-19">
          <mxGeometry y="60" width="140" height="30" as="geometry" />
        </mxCell>
        <mxCell id="br4_NB9lEpFLnCuc-L6s-22" value="&amp;nbsp; &amp;nbsp;- Адрес" style="text;strokeColor=none;fillColor=none;align=left;verticalAlign=middle;spacingLeft=4;spacingRight=4;overflow=hidden;points=[[0,0.5],[1,0.5]];portConstraint=eastwest;rotatable=0;whiteSpace=wrap;html=1;" vertex="1" parent="br4_NB9lEpFLnCuc-L6s-19">
          <mxGeometry y="90" width="140" height="30" as="geometry" />
        </mxCell>
        <mxCell id="br4_NB9lEpFLnCuc-L6s-23" value="&amp;nbsp; &amp;nbsp;- Телефон" style="text;strokeColor=none;fillColor=none;align=left;verticalAlign=middle;spacingLeft=4;spacingRight=4;overflow=hidden;points=[[0,0.5],[1,0.5]];portConstraint=eastwest;rotatable=0;whiteSpace=wrap;html=1;" vertex="1" parent="br4_NB9lEpFLnCuc-L6s-19">
          <mxGeometry y="120" width="140" height="30" as="geometry" />
        </mxCell>
        <mxCell id="br4_NB9lEpFLnCuc-L6s-51" style="edgeStyle=orthogonalEdgeStyle;rounded=0;orthogonalLoop=1;jettySize=auto;html=1;exitX=0.5;exitY=0;exitDx=0;exitDy=0;entryX=0.5;entryY=0;entryDx=0;entryDy=0;" edge="1" parent="1" source="br4_NB9lEpFLnCuc-L6s-24" target="br4_NB9lEpFLnCuc-L6s-28">
          <mxGeometry relative="1" as="geometry" />
        </mxCell>
        <mxCell id="br4_NB9lEpFLnCuc-L6s-24" value="Заказы" style="swimlane;fontStyle=0;childLayout=stackLayout;horizontal=1;startSize=30;horizontalStack=0;resizeParent=1;resizeParentMax=0;resizeLast=0;collapsible=1;marginBottom=0;whiteSpace=wrap;html=1;" vertex="1" parent="1">
          <mxGeometry x="40" y="550" width="140" height="120" as="geometry" />
        </mxCell>
        <mxCell id="br4_NB9lEpFLnCuc-L6s-25" value="&amp;nbsp; &amp;nbsp;- ID" style="text;strokeColor=none;fillColor=none;align=left;verticalAlign=middle;spacingLeft=4;spacingRight=4;overflow=hidden;points=[[0,0.5],[1,0.5]];portConstraint=eastwest;rotatable=0;whiteSpace=wrap;html=1;" vertex="1" parent="br4_NB9lEpFLnCuc-L6s-24">
          <mxGeometry y="30" width="140" height="30" as="geometry" />
        </mxCell>
        <mxCell id="br4_NB9lEpFLnCuc-L6s-26" value="&amp;nbsp; &amp;nbsp;- Дата заказа" style="text;strokeColor=none;fillColor=none;align=left;verticalAlign=middle;spacingLeft=4;spacingRight=4;overflow=hidden;points=[[0,0.5],[1,0.5]];portConstraint=eastwest;rotatable=0;whiteSpace=wrap;html=1;" vertex="1" parent="br4_NB9lEpFLnCuc-L6s-24">
          <mxGeometry y="60" width="140" height="30" as="geometry" />
        </mxCell>
        <mxCell id="br4_NB9lEpFLnCuc-L6s-27" value="&amp;nbsp; &amp;nbsp;- Статус" style="text;strokeColor=none;fillColor=none;align=left;verticalAlign=middle;spacingLeft=4;spacingRight=4;overflow=hidden;points=[[0,0.5],[1,0.5]];portConstraint=eastwest;rotatable=0;whiteSpace=wrap;html=1;" vertex="1" parent="br4_NB9lEpFLnCuc-L6s-24">
          <mxGeometry y="90" width="140" height="30" as="geometry" />
        </mxCell>
        <mxCell id="br4_NB9lEpFLnCuc-L6s-28" value="Клиенты" style="swimlane;fontStyle=0;childLayout=stackLayout;horizontal=1;startSize=30;horizontalStack=0;resizeParent=1;resizeParentMax=0;resizeLast=0;collapsible=1;marginBottom=0;whiteSpace=wrap;html=1;" vertex="1" parent="1">
          <mxGeometry x="414" y="550" width="140" height="210" as="geometry" />
        </mxCell>
        <mxCell id="br4_NB9lEpFLnCuc-L6s-29" value="&amp;nbsp; &amp;nbsp;- ID" style="text;strokeColor=none;fillColor=none;align=left;verticalAlign=middle;spacingLeft=4;spacingRight=4;overflow=hidden;points=[[0,0.5],[1,0.5]];portConstraint=eastwest;rotatable=0;whiteSpace=wrap;html=1;" vertex="1" parent="br4_NB9lEpFLnCuc-L6s-28">
          <mxGeometry y="30" width="140" height="30" as="geometry" />
        </mxCell>
        <mxCell id="br4_NB9lEpFLnCuc-L6s-30" value="&amp;nbsp; &amp;nbsp;- Имя" style="text;strokeColor=none;fillColor=none;align=left;verticalAlign=middle;spacingLeft=4;spacingRight=4;overflow=hidden;points=[[0,0.5],[1,0.5]];portConstraint=eastwest;rotatable=0;whiteSpace=wrap;html=1;" vertex="1" parent="br4_NB9lEpFLnCuc-L6s-28">
          <mxGeometry y="60" width="140" height="30" as="geometry" />
        </mxCell>
        <mxCell id="br4_NB9lEpFLnCuc-L6s-31" value="&amp;nbsp; &amp;nbsp;- Фамилия" style="text;strokeColor=none;fillColor=none;align=left;verticalAlign=middle;spacingLeft=4;spacingRight=4;overflow=hidden;points=[[0,0.5],[1,0.5]];portConstraint=eastwest;rotatable=0;whiteSpace=wrap;html=1;" vertex="1" parent="br4_NB9lEpFLnCuc-L6s-28">
          <mxGeometry y="90" width="140" height="30" as="geometry" />
        </mxCell>
        <mxCell id="br4_NB9lEpFLnCuc-L6s-32" value="&amp;nbsp; &amp;nbsp;- Адрес" style="text;strokeColor=none;fillColor=none;align=left;verticalAlign=middle;spacingLeft=4;spacingRight=4;overflow=hidden;points=[[0,0.5],[1,0.5]];portConstraint=eastwest;rotatable=0;whiteSpace=wrap;html=1;" vertex="1" parent="br4_NB9lEpFLnCuc-L6s-28">
          <mxGeometry y="120" width="140" height="30" as="geometry" />
        </mxCell>
        <mxCell id="br4_NB9lEpFLnCuc-L6s-33" value="&amp;nbsp; &amp;nbsp;- Электронная почта" style="text;strokeColor=none;fillColor=none;align=left;verticalAlign=middle;spacingLeft=4;spacingRight=4;overflow=hidden;points=[[0,0.5],[1,0.5]];portConstraint=eastwest;rotatable=0;whiteSpace=wrap;html=1;" vertex="1" parent="br4_NB9lEpFLnCuc-L6s-28">
          <mxGeometry y="150" width="140" height="30" as="geometry" />
        </mxCell>
        <mxCell id="br4_NB9lEpFLnCuc-L6s-34" value="&amp;nbsp; &amp;nbsp;- Телефон" style="text;strokeColor=none;fillColor=none;align=left;verticalAlign=middle;spacingLeft=4;spacingRight=4;overflow=hidden;points=[[0,0.5],[1,0.5]];portConstraint=eastwest;rotatable=0;whiteSpace=wrap;html=1;" vertex="1" parent="br4_NB9lEpFLnCuc-L6s-28">
          <mxGeometry y="180" width="140" height="30" as="geometry" />
        </mxCell>
        <mxCell id="br4_NB9lEpFLnCuc-L6s-50" style="edgeStyle=orthogonalEdgeStyle;rounded=0;orthogonalLoop=1;jettySize=auto;html=1;entryX=0.5;entryY=0;entryDx=0;entryDy=0;" edge="1" parent="1" source="br4_NB9lEpFLnCuc-L6s-7" target="br4_NB9lEpFLnCuc-L6s-19">
          <mxGeometry relative="1" as="geometry" />
        </mxCell>
        <mxCell id="br4_NB9lEpFLnCuc-L6s-53" value="" style="endArrow=classic;startArrow=classic;html=1;rounded=0;exitX=1.012;exitY=0.376;exitDx=0;exitDy=0;entryX=0.5;entryY=0;entryDx=0;entryDy=0;exitPerimeter=0;" edge="1" parent="1" source="br4_NB9lEpFLnCuc-L6s-4" target="br4_NB9lEpFLnCuc-L6s-15">
          <mxGeometry width="50" height="50" relative="1" as="geometry">
            <mxPoint x="280" y="220" as="sourcePoint" />
            <mxPoint x="330" y="170" as="targetPoint" />
            <Array as="points">
              <mxPoint x="280" y="200" />
              <mxPoint x="400" y="200" />
              <mxPoint x="630" y="200" />
            </Array>
          </mxGeometry>
        </mxCell>
      </root>
    </mxGraphModel>
  </diagram>
</mxfile>
